{"asset":{"generator":"3D Builder","version":"2.0"},"scene":0,"scenes":[{"nodes":[0]}],"nodes":[{"mesh":0,"matrix":[100,0,0,0,0,-1.1920928955078125E-5,-99.999984741210938,0,0,99.999984741210938,-1.1920928955078125E-5,0,-2.4265890121459961,4.4814672151005652E-7,3.759326696395874,1]}],"meshes":[{"primitives":[{"attributes":{"POSITION":0,"TEXCOORD_0":1},"mode":4,"indices":2,"material":0}]}],"materials":[{"pbrMetallicRoughness":{"baseColorFactor":[1,1,1,1],"metallicFactor":0,"roughnessFactor":1,"baseColorTexture":{"index":0,"texCoord":0}},"alphaMode":"OPAQUE"}],"textures":[{"source":0,"sampler":0}],"images":[{"uri":"zolwZolty.png"}],"samplers":[{"magFilter":9729,"wrapS":10497,"wrapT":10497}],"accessors":[{"bufferView":0,"byteOffset":0,"count":228,"componentType":5126,"type":"VEC3","min":[0,0,0],"max":[0.049022000283002853,0.07594599574804306,0.0076200002804398537]},{"bufferView":1,"byteOffset":0,"count":228,"componentType":5126,"type":"VEC2"},{"bufferView":2,"byteOffset":0,"count":1356,"componentType":5125,"type":"SCALAR"}],"bufferViews":[{"buffer":0,"byteOffset":0,"byteLength":2736,"byteStride":12,"target":34962},{"buffer":0,"byteOffset":2736,"byteLength":1824,"byteStride":8,"target":34962},{"buffer":0,"byteOffset":4560,"byteLength":5424,"target":34963}],"buffers":[{"byteLength":9984,"uri":"zolwZolty.bin"}]}