{
  "asset": { "generator": "3D Builder", "version": "2.0" },
  "scene": 0,
  "scenes": [{ "nodes": [0] }],
  "nodes": [
    {
      "mesh": 0,
      "matrix": [
        99.999992370605469, 0, 0, 0, 0, -1.1920928045583423e-5,
        -99.9999771118164, 0, 0, 99.9999771118164, -1.1920928045583423e-5, 0,
        -2.4383997917175293, -0.0038095372729003429, 3.7972979545593262, 1
      ]
    }
  ],
  "meshes": [
    {
      "primitives": [
        {
          "attributes": { "POSITION": 0, "TEXCOORD_0": 1 },
          "mode": 4,
          "indices": 2,
          "material": 0
        }
      ]
    }
  ],
  "materials": [
    {
      "pbrMetallicRoughness": {
        "baseColorFactor": [1, 1, 1, 1],
        "metallicFactor": 0,
        "roughnessFactor": 1,
        "baseColorTexture": { "index": 0, "texCoord": 0 }
      },
      "alphaMode": "OPAQUE"
    }
  ],
  "textures": [{ "source": 0, "sampler": 0 }],
  "images": [{ "uri": "zolwNiebieski2.png" }],
  "samplers": [{ "magFilter": 9729, "wrapS": 10497, "wrapT": 10497 }],
  "accessors": [
    {
      "bufferView": 0,
      "byteOffset": 0,
      "count": 66,
      "componentType": 5126,
      "type": "VEC3",
      "min": [0, -5.4143358457564643e-17, 0],
      "max": [0.048768002539873123, 0.07594597339630127, 0.0076199979521334171]
    },
    {
      "bufferView": 1,
      "byteOffset": 0,
      "count": 66,
      "componentType": 5126,
      "type": "VEC2"
    },
    {
      "bufferView": 2,
      "byteOffset": 0,
      "count": 384,
      "componentType": 5125,
      "type": "SCALAR"
    }
  ],
  "bufferViews": [
    {
      "buffer": 0,
      "byteOffset": 0,
      "byteLength": 792,
      "byteStride": 12,
      "target": 34962
    },
    {
      "buffer": 0,
      "byteOffset": 792,
      "byteLength": 528,
      "byteStride": 8,
      "target": 34962
    },
    { "buffer": 0, "byteOffset": 1320, "byteLength": 1536, "target": 34963 }
  ],
  "buffers": [{ "byteLength": 2856, "uri": "zolwNiebieski.bin" }]
}
